<svg xmlns:inkscape="http://www.inkscape.org/namespaces/inkscape" xmlns:sodipodi="http://sodipodi.sourceforge.net/DTD/sodipodi-0.dtd" xmlns="http://www.w3.org/2000/svg" xmlns:svg="http://www.w3.org/2000/svg" width="284.16133366698904" height="351.9127627588869" viewBox="0 0 114.26398 141.62325" version="1.1" id="svg1" inkscape:version="1.4.2 (ebf0e940d0, 2025-05-08)" sodipodi:docname="Logo of Bureau Veritas.svg">
  <sodipodi:namedview id="namedview1" pagecolor="#ffffff" bordercolor="#000000" borderopacity="0.25" inkscape:showpageshadow="2" inkscape:pageopacity="0.0" inkscape:pagecheckerboard="0" inkscape:deskcolor="#d1d1d1" inkscape:document-units="mm" inkscape:zoom="0.63432083" inkscape:cx="79.61271" inkscape:cy="256.96776" inkscape:window-width="1870" inkscape:window-height="1011" inkscape:window-x="0" inkscape:window-y="0" inkscape:window-maximized="1" inkscape:current-layer="layer1"/>
  <defs id="defs1"/>
  <g inkscape:label="Layer 1" inkscape:groupmode="layer" id="layer1" transform="translate(-78.052086,-82.81455)">
    <path fill-rule="nonzero" fill="#656263" fill-opacity="1" d="m 119.38073,85.153098 c 0.18378,-0.06151 -0.19401,0.06151 0,0" id="path53" style="stroke-width:2.61432"/>
    <path fill-rule="nonzero" fill="#656263" fill-opacity="1" d="m 172.28998,132.32312 c 0.17363,-10.94745 -3.15555,-24.2437 -6.37239,-31.31051 -3.56405,-8.098263 -9.00713,-13.010299 -17.00328,-15.19571 -4.29932,-1.102928 -8.82331,-1.66459 -13.45962,-1.66459 -4.63633,0 -9.19096,0.561654 -13.49029,1.66459 -7.98592,2.185411 -13.42901,7.097447 -16.99304,15.19571 -3.21684,7.06681 -6.556214,20.36306 -6.3724,31.31051 -0.183784,10.95767 3.15556,24.2437 6.3724,31.32073 3.56403,8.08804 9.00712,13.0001 16.99304,15.18549 4.29933,1.10293 8.85396,1.66458 13.49029,1.66458 4.63631,0 9.1603,-0.56165 13.45962,-1.66458 7.99615,-2.18539 13.43923,-7.09745 17.00328,-15.18549 3.21684,-7.07703 6.54601,-20.36306 6.37239,-31.32073 m -36.77404,49.51882 h -0.11242 c -5.57587,0 -10.94744,-0.82719 -16.0229,-2.35902 -5.4635,-1.89946 -10.51854,-5.68818 -13.65369,-10.43682 -5.16735,-7.55702 -9.854736,-22.16044 -10.058967,-36.70256 v -0.0408 c 0.204164,-14.54214 4.891617,-29.14555 10.058967,-36.702543 3.13515,-4.738442 8.19019,-8.54758 13.65369,-10.447065 5.07546,-1.531806 10.55937,-2.338582 16.13521,-2.338582 5.57587,0 11.05979,0.806776 16.14547,2.338582 5.45328,1.899485 10.51851,5.708623 13.65366,10.447065 5.16735,7.556993 9.85474,22.160403 10.04877,36.702543 v 0.0408 c -0.19401,14.54212 -4.88142,29.14554 -10.04877,36.70256 -3.13515,4.74864 -8.31272,8.55778 -13.766,10.44703 -5.08568,1.53184 -10.33473,2.34881 -15.91056,2.34881 z m 0,0" id="path54" style="stroke-width:2.61432"/>
    <path fill-rule="nonzero" fill="#656263" fill-opacity="1" d="m 140.99989,109.78487 c -0.54127,-0.89868 -0.10219,-0.1022 -0.65355,-1.14376" id="path55" style="stroke-width:2.61432"/>
    <path fill-rule="nonzero" fill="#656263" fill-opacity="1" d="m 136.79249,177.92047 c -0.0304,-2.0118 1.9301,-3.0228 3.16575,-4.35038 0.32681,-0.31658 0.45954,-0.95995 0.21439,-1.48077 -0.14302,-0.32681 -0.35742,-0.49022 -0.63317,-0.56166 -0.42892,-0.10219 -0.79655,-0.0304 -1.07229,0.20417 -0.37787,0.35741 -0.47999,0.8272 -0.46976,1.32757 l -1.37863,0.0719 c -0.11242,-0.75572 0.0711,-1.491 0.54127,-2.06288 0.64339,-0.68422 1.60331,-0.87822 2.54284,-0.81697 0.73529,0.12257 1.61351,0.57188 1.91988,1.35824 0.39832,0.84759 0.26552,1.94029 -0.36764,2.65515 -0.80678,0.85783 -1.85862,1.32758 -2.53262,2.29775 l 3.46193,-0.20417 c 0.0304,0.42893 0.0615,0.84762 0.0711,1.23569 z m 0,0" id="path56" style="stroke-width:2.61432"/>
    <path fill-rule="nonzero" fill="#656263" fill-opacity="1" d="m 124.49703,169.25033 -0.0207,0.0719 -2.25689,6.92383 -1.43991,-0.47998 1.54203,-4.72824 0.0207,-0.0816 c -0.57188,-0.20416 -1.2663,-0.40847 -1.81776,-0.60256 l 0.2859,-0.89867 c 0.73529,0.19402 1.48078,0.31659 2.12413,-0.21439 0.22455,-0.17363 0.26553,-0.22454 0.3881,-0.36764 z m 0,0" id="path57" style="stroke-width:2.61432"/>
    <path fill-rule="nonzero" fill="#656263" fill-opacity="1" d="m 150.18064,174.44832 c -0.18379,0.21439 -0.5106,0.37787 -0.85784,0.46976 -0.35741,0.0816 -0.72506,0.092 -0.99056,-0.0104 -0.35742,-0.1328 -0.60256,-0.40848 -0.69445,-0.72506 -0.1328,-0.47999 0,-0.98037 0.39832,-1.2663 0.18379,-0.11242 0.43916,-0.23506 0.70461,-0.30635 0.27575,-0.0615 0.56165,-0.0816 0.76591,-0.0511 0.50037,0.0615 0.84762,0.43916 0.94973,0.91909 0.0615,0.32681 -0.0207,0.69438 -0.27575,0.97015 m -3.0228,-3.33938 c -0.17363,-0.29613 -0.17363,-0.79655 0.1328,-1.10293 0.17355,-0.18378 0.43915,-0.31658 0.71483,-0.38802 0.27575,-0.0719 0.57188,-0.0719 0.82717,0.0104 0.40847,0.12257 0.63317,0.57188 0.63317,0.91911 -0.0104,0.26553 -0.1328,0.47999 -0.30636,0.64339 -0.17356,0.15318 -0.4187,0.27576 -0.68423,0.33704 -0.25544,0.0615 -0.52082,0.0711 -0.75571,0.0207 -0.22455,-0.0711 -0.42893,-0.20416 -0.56166,-0.43915 m 4.76909,1.98115 c -0.18379,-0.68423 -0.57188,-1.22546 -1.32758,-1.45014 l -0.43915,-0.092 c 0.4493,-0.31658 0.86803,-0.97017 0.72506,-1.58288 -0.11242,-0.71484 -0.62294,-1.17441 -1.27652,-1.4195 -0.56165,-0.17356 -1.22546,-0.14303 -1.85862,0.0304 -0.63317,0.14303 -1.22547,0.41871 -1.65437,0.84761 -0.45953,0.5106 -0.7046,1.15396 -0.45953,1.82798 0.15318,0.62294 0.81698,1.00079 1.36844,1.07227 l -0.34719,0.28597 c -0.57188,0.56166 -0.6434,1.21524 -0.49022,1.89946 0.16341,0.76592 0.77613,1.36844 1.53183,1.59311 0.56165,0.14303 1.23568,0.1328 1.89946,-0.0304 0.66378,-0.16341 1.27652,-0.46976 1.70545,-0.86803 0.55142,-0.54127 0.82717,-1.35824 0.62294,-2.11393" id="path58" style="stroke-width:2.61432"/>
    <path fill-rule="nonzero" fill="#656263" fill-opacity="1" d="m 131.14515,176.47033 c -0.23477,0.15318 -0.60256,0.21439 -0.95995,0.18379 -0.36765,-0.0104 -0.71484,-0.12257 -0.9395,-0.29613 -0.30636,-0.23477 -0.44939,-0.57188 -0.43916,-0.90887 0.0104,-0.49021 0.2859,-0.92931 0.75569,-1.07229 0.20416,-0.0615 0.47999,-0.10219 0.76592,-0.092 0.27575,0.0208 0.5515,0.092 0.7455,0.18378 0.4493,0.20417 0.674,0.674 0.62294,1.16418 -0.0304,0.31659 -0.22455,0.6434 -0.55151,0.83739 m -1.88926,-4.08486 c -0.0711,-0.33704 0.0719,-0.8272 0.45953,-1.02121 0.21439,-0.12257 0.5106,-0.17356 0.79656,-0.15318 0.28598,0.0207 0.57188,0.1022 0.77613,0.25545 0.35742,0.23477 0.44931,0.73528 0.33697,1.06206 -0.0917,0.26553 -0.26553,0.41871 -0.47999,0.53105 -0.21439,0.092 -0.49022,0.1328 -0.7557,0.11242 -0.26552,-0.0104 -0.52082,-0.0816 -0.72506,-0.20416 -0.19401,-0.1328 -0.35741,-0.31658 -0.40847,-0.58211 m 3.96234,3.30876 c 0.0207,-0.70468 -0.17356,-1.34802 -0.83739,-1.77692 l -0.3881,-0.22455 c 0.52082,-0.1634 1.11313,-0.65354 1.15397,-1.29694 0.11242,-0.71483 -0.245,-1.29696 -0.78634,-1.73608 -0.49022,-0.32681 -1.13354,-0.49022 -1.78712,-0.53105 -0.64339,-0.0511 -1.29694,0.0408 -1.82798,0.31658 -0.59226,0.35742 -1.02121,0.89867 -0.99059,1.62375 -0.0304,0.63317 0.49021,1.19482 0.99059,1.4297 l -0.41871,0.17355 c -0.71483,0.34719 -0.98037,0.95996 -1.03143,1.66459 -0.0711,0.78633 0.33704,1.53181 0.99059,1.96074 0.49022,0.31658 1.14376,0.51059 1.82798,0.55142 0.674,0.0408 1.348,-0.0711 1.87904,-0.32681 0.69438,-0.34719 1.1846,-1.04162 1.22547,-1.82795" id="path59" style="stroke-width:2.61432"/>
    <path fill-rule="nonzero" fill="#656263" fill-opacity="1" d="m 165.80525,105.4651 -6.74002,2.90027 -0.60256,-1.39907 6.72983,-2.91047 z m 0,0" id="path60" style="stroke-width:2.61432"/>
    <path fill-rule="nonzero" fill="#656263" fill-opacity="1" d="m 140.41779,93.813016 -1.73606,-7.546793 1.60331,0.163405 c 0.31658,1.86885 0.64339,3.982755 1.02122,5.555423 0.69438,-1.46033 1.43992,-3.472124 2.12413,-5.238825 l 1.57267,0.163405 -3.1862,7.046396 z m 0,0" id="path61" style="stroke-width:2.61432"/>
    <path fill-rule="nonzero" fill="#656263" fill-opacity="1" d="m 111.75224,98.132785 -1.63395,2.930875 -1.37864,-0.76591 1.86882,-3.359785 -1.05184,-0.602561 -2.62454,4.707806 6.40303,3.58446 2.62454,-4.718024 -1.06207,-0.592334 -1.87904,3.370008 -1.79733,-1.00078 1.65436,-2.930882 z m 0,0" id="path62" style="stroke-width:2.61432"/>
    <path fill-rule="nonzero" fill="#656263" fill-opacity="1" d="m 106.90145,132.62949 h -2.06285 c 0.0408,-1.63395 -0.21439,-2.5939 0.75569,-2.77771 0.33704,-0.092 0.75569,-0.0511 1.00079,0.19401 0.4187,0.40847 0.2962,1.07226 0.30635,2.58368 m -3.16577,0 h -1.79735 c 0.0511,-1.67481 -0.22454,-2.58368 0.80678,-2.68579 0.61271,-0.0511 0.77611,0.0816 0.90887,0.45953 0.12264,0.36764 0.0816,0.76592 0.0816,2.22625 m 4.13595,-3.31895 c -0.34726,-0.79656 -1.19485,-1.11313 -2.07308,-1.06207 -0.73528,0.092 -1.29696,0.59234 -1.61353,1.34799 -0.11242,-0.43915 -0.53104,-1.00078 -1.22545,-1.08248 -0.7455,-0.092 -1.45014,0.1022 -1.79735,0.72506 -0.49021,0.62294 -0.27575,3.3496 -0.32681,4.92229 l 7.28129,-0.0104 0.0104,-0.53105 c -0.0408,-2.89004 0.12265,-3.24747 -0.25515,-4.30954" id="path63" style="stroke-width:2.61432"/>
    <path fill-rule="nonzero" fill="#656263" fill-opacity="1" d="m 165.86653,109.53978 1.16418,-0.30636 1.47056,5.73923 -1.16419,0.29613 -0.54127,-2.11391 -5.89244,1.52161 -0.37787,-1.49097 5.88221,-1.52161 z m 0,0" id="path64" style="stroke-width:2.61432"/>
    <path fill-rule="nonzero" fill="#656263" fill-opacity="1" d="m 128.8474,94.231725 c 0.81698,-0.122572 1.58289,-0.459535 2.10372,-1.062066 0.43915,-0.510594 0.51059,-0.99059 0.43915,-1.521608 l -0.83739,-5.249051 -1.5012,0.234769 0.84762,5.249044 c 0.0511,0.388096 -0.22454,0.796557 -0.57188,1.000787 -0.20416,0.122647 -0.42893,0.194012 -0.674,0.224543 -0.23477,0.05113 -0.47999,0.05113 -0.69438,0 -0.39825,-0.08159 -0.77614,-0.347189 -0.86803,-0.77611 l -0.84761,-5.238855 -1.48077,0.23477 0.83741,5.249081 c 0.10219,0.531048 0.31658,0.970144 0.89867,1.307151 0.674,0.408476 1.51139,0.490215 2.32837,0.34719 z m 0,0" id="path65" style="stroke-width:2.61432"/>
    <path fill-rule="nonzero" fill="#656263" fill-opacity="1" d="m 165.0087,122.2437 -0.245,-1.81776 3.15559,0.49022 h 0.0208 -0.0208 z m 4.23807,-2.30794 -7.61828,-1.53184 0.21439,1.491 1.65436,0.29613 0.36765,2.62451 -1.51139,0.7455 0.20416,1.49097 6.91366,-3.55382 z m 0,0" id="path66" style="stroke-width:2.61432"/>
    <path fill-rule="nonzero" fill="#656263" fill-opacity="1" d="m 168.14384,132.53757 0.14302,-0.0207 0.16341,-0.0511 0.12264,-0.0408 c 0.49022,-0.26553 0.60249,-0.90887 0.57188,-1.42969 -0.0207,-0.53105 -0.18378,-1.06207 -0.67399,-1.26633 -0.26553,-0.0711 -0.58211,-0.092 -0.76593,0.17364 -0.82717,1.22545 -0.24499,3.82955 -2.37941,4.2789 -0.92931,0.1634 -1.75651,-0.25545 -2.23647,-1.00079 -0.65355,-1.17441 -0.71483,-3.0228 0.0408,-4.16656 0.45961,-0.59234 1.07228,-0.95996 1.81779,-0.97018 l 0.0917,1.4093 c -0.45953,0.0615 -0.90886,0.28591 -1.11312,0.74547 -0.30636,0.73529 -0.23477,1.89946 0.30635,2.32839 0.20417,0.22455 0.65355,0.19401 0.89868,0.0711 0.84761,-0.61272 0.674,-2.13436 1.1029,-3.14534 0.14302,-0.42893 0.54127,-0.86806 0.93953,-1.09271 0.75569,-0.31658 1.71565,-0.20416 2.31816,0.38802 0.98037,0.92931 1.02122,2.73688 0.57188,3.82958 -0.25544,0.76592 -1.08249,1.30716 -1.93009,1.35822 l -0.092,-1.39908 z m 0,0" id="path67" style="stroke-width:2.61432"/>
    <path fill-rule="nonzero" fill="#656263" fill-opacity="1" d="m 109.1175,121.45737 c 0.1328,-0.81698 0.0511,-1.66459 -0.36764,-2.32837 -0.33696,-0.5821 -0.77611,-0.79655 -1.30716,-0.89866 l -5.24905,-0.81698 -0.23477,1.48075 5.24904,0.83742 c 0.3881,0.0615 0.69438,0.45953 0.77612,0.8578 0.0511,0.21439 0.0511,0.45954 0.0104,0.70461 -0.0304,0.23507 -0.1022,0.46976 -0.23477,0.66377 -0.19401,0.33697 -0.56166,0.62294 -1.00081,0.57188 l -5.23883,-0.81697 -0.23506,1.49097 5.24907,0.8272 c 0.54127,0.0615 1.0212,-0.0104 1.52161,-0.44939 0.60256,-0.52082 0.92931,-1.29693 1.06206,-2.10371 z m 0,0" id="path68" style="stroke-width:2.61432"/>
    <path fill-rule="nonzero" fill="#656263" fill-opacity="1" d="m 118.14505,94.854665 -0.81698,-3.094276 v -0.01038 0.01038 -0.02075 l 0.0104,0.02075 2.36922,2.144549 z m -0.89867,-4.748668 -1.3378,0.816973 1.60333,7.608079 1.29694,-0.776111 -0.3881,-1.644173 2.26712,-1.378635 1.28673,1.092679 1.27653,-0.77611 z m 0,0" id="path69" style="stroke-width:2.61432"/>
    <path fill-rule="nonzero" fill="#656263" fill-opacity="1" d="m 152.84601,92.495667 -3.08408,-1.296961 0.60256,-1.460337 3.55385,1.490972 0.46976,-1.123344 -4.97332,-2.073051 -2.82876,6.760441 4.97331,2.083299 0.46976,-1.123352 -3.56404,-1.490966 0.79655,-1.889266 3.10451,1.307159 z m 0,0" id="path70" style="stroke-width:2.61432"/>
    <path fill-rule="nonzero" fill="#656263" fill-opacity="1" d="m 106.73806,111.36776 -1.84841,-0.54121 c 0.40848,-1.2459 0.58211,-2.5122 1.47056,-2.44073 0.35742,0.0615 0.60249,0.16341 0.80675,0.41871 0.33703,0.4187 -0.1022,1.35821 -0.42893,2.56325 m 1.45013,-2.62453 c 0,-0.50037 -0.0207,-0.91909 -0.43916,-1.31738 -0.40847,-0.4187 -1.04164,-0.60249 -1.67478,-0.56165 -1.63395,0.24499 -1.84843,2.11391 -2.75729,5.08565 l 7.02598,2.10372 0.43915,-1.47056 -2.77771,-0.82719 -0.1022,-0.0304 c 0.18379,-0.68422 0.45954,-1.53182 0.59234,-1.72586 0.50037,-1.15399 2.359,-0.0207 3.09428,-0.12264 l 0.42893,-1.46033 c -1.24587,0.0711 -2.93088,-1.05184 -3.82955,0.32681" id="path71" style="stroke-width:2.61432"/>
    <path fill-rule="nonzero" fill="#656263" fill-opacity="1" d="m 160.54598,98.704666 c -0.25515,0.255149 -0.46976,0.398248 -0.80675,0.408475 -0.5515,0.02075 -1.04165,-0.878252 -1.81776,-1.858615 l 1.51139,-1.174404 c 0.78633,1.062066 1.69522,1.960734 1.11312,2.624536 m -1.0927,-4.554635 -5.82094,4.442297 0.9191,1.215237 2.30796,-1.746285 0.0918,-0.07114 c 0.43915,0.541274 0.97017,1.266296 1.03143,1.490973 0.65354,1.082475 -1.37864,1.919895 -1.70542,2.583675 l 0.91908,1.20504 c 0.674,-1.06206 2.57349,-1.75648 1.98118,-3.288311 0.40848,0.296131 0.76589,0.520821 1.33777,0.408471 0.57188,-0.0711 1.10293,-0.479983 1.43995,-1.021228 0.75569,-1.470549 -0.63317,-2.747072 -2.50201,-5.218409" id="path72" style="stroke-width:2.61432"/>
    <path fill-rule="nonzero" fill="#656263" fill-opacity="1" d="m 154.32678,134.0694 -12.63244,-0.0207 v -3.67637 l 12.63244,-0.0104 z m -1.26632,18.08576 c -0.5821,0.46976 -1.07226,0.85781 -1.77692,1.40927 0.0511,-1.40927 0.25544,-2.82876 -0.42893,-3.66615 -1.65437,-1.64418 -3.15557,-3.13514 -4.64653,-4.6057 -0.5515,-0.59233 -1.00079,-1.45013 -0.63317,-2.24669 0.17356,-0.37787 0.40848,-0.81697 0.66378,-1.15396 0,0.76592 0.33696,1.20504 0.77611,1.64415 2.03224,1.99137 5.54522,4.76908 5.83115,5.95371 0.29613,0.79655 0.20416,1.73606 0.21439,2.66537 m -2.76749,0.50044 c -0.3881,0.42893 -0.52082,0.58211 -0.98036,1.03143 l -0.9191,-1.11312 v -3.08409 c -1.30716,0.63317 -0.99059,2.48157 -0.99059,4.07465 -0.76591,-0.62294 -1.15398,-0.98037 -1.89945,-1.67478 -0.40848,-1.8484 0.69438,-2.89005 1.52161,-4.19721 l 3.26789,3.13514 z m 0.78634,-16.5335 c 0.77611,0.64339 1.16417,0.99056 1.89945,1.69519 0.4187,1.83821 -0.69438,2.89006 -1.52161,4.18702 l -3.26784,-3.13518 v -1.81776 c 0.38809,-0.42893 0.52082,-0.59233 0.98036,-1.03145 l 0.92931,1.10293 v 3.08408 c 1.29694,-0.63317 0.98037,-2.48157 0.98037,-4.08487 m -5.65754,1.42969 c 0.59233,-0.45954 1.06207,-0.86804 1.7769,-1.41949 -0.0615,1.40929 -0.245,2.82876 0.42893,3.66618 1.65436,1.65437 3.15555,3.14533 4.64652,4.60569 0.56166,0.60249 1.00079,1.46033 0.63317,2.24667 -0.17356,0.3881 -0.40847,0.81697 -0.66377,1.16418 0,-0.77611 -0.32681,-1.21524 -0.76592,-1.65437 -2.03221,-1.99137 -5.54519,-4.76908 -5.83115,-5.95368 -0.30635,-0.78634 -0.20416,-1.74629 -0.22454,-2.65518 m -0.59233,24.61132 c -0.35742,0.60256 -0.91909,1.21527 -1.55225,1.52164 -1.11312,0.62294 -2.78791,0.45953 -3.7785,-0.26552 -0.90887,-0.65355 -1.48075,-1.63395 -1.49097,-2.63473 2.79813,0 4.57506,0 7.22001,0 -0.0304,0.59226 -0.12265,0.79655 -0.39832,1.37863 m -7.78169,1.52162 h -2.49176 v -4.46274 l -3.87041,0.0104 V 157.435 h 3.89083 l 1.21524,-1.43991 c 0.59233,0.68423 0.64339,0.73529 1.2561,1.43991 h 3.88063 v 1.79734 l -3.88063,-0.0104 z m -4.9529,-0.26552 c -1.00079,0.72505 -2.66538,0.88847 -3.7785,0.26552 -0.63316,-0.30636 -1.20504,-0.91911 -1.56247,-1.52164 -0.25515,-0.58211 -0.36764,-0.78633 -0.38809,-1.37863 2.64496,0 4.42188,0 7.22001,0 -0.0104,1.00078 -0.58211,1.98116 -1.49097,2.63473 m 7.87359,-16.5437 0.0104,-10.83511 c 1.55225,-0.0207 2.05263,0.0208 3.65594,-0.0104 v 10.84534 z m -1.17441,1.07226 c 1.23568,0.0511 2.49178,1.08251 2.97175,2.22627 0.49021,1.18461 0.29613,2.72666 -0.45954,3.70702 -0.95994,1.15397 -2.27732,1.76671 -3.80913,1.49098 -0.97017,-0.21439 -1.9199,-0.80678 -2.48156,-1.71565 0.79656,-0.26552 1.91987,-0.71483 2.14455,-1.49097 -0.0615,-1.19484 0.76591,-2.15477 1.37863,-3.11472 0.30636,-0.40848 0.34727,-0.65355 0.25545,-1.10293 m -14.01109,8.42505 c -0.60249,-0.39825 -0.7455,-0.78633 -0.95995,-1.33779 -0.51059,-2.33859 2.30795,-3.16578 2.97175,-5.10608 0.53105,-3.23725 0.68423,-6.64812 2.94111,-9.17055 0.21439,-4.75886 1.75647,-8.97649 5.1367,-12.42819 -0.15318,-1.07229 -0.59233,-2.0016 -0.91908,-3.00239 -0.43916,-0.0208 -0.73529,-0.10219 -1.14376,-0.45953 -0.29613,-0.4187 -0.40848,-0.72506 -0.49022,-1.22546 -1.1744,1.46032 -2.63473,3.09427 -4.23806,4.07464 -0.29613,0.17363 -0.66378,-0.18378 -1.20502,-0.674 -1.97096,-1.56247 -2.29775,-5.07545 -5.30014,-4.92225 -1.36841,-0.45954 -1.29693,-2.06286 -1.5216,-3.2679 0.50036,-0.36764 1.32757,-0.35741 1.93009,-0.11242 1.87904,1.00079 3.12495,3.11473 4.89165,4.524 0.46976,0.37787 0.89867,0.86803 1.33779,1.05184 1.15396,-1.00078 2.08327,-1.85862 2.87983,-3.40064 0.54127,-0.87826 1.45013,-1.2561 2.45092,-1.2663 l 0.71483,-0.84762 -0.37787,-2.09349 c -0.73528,-0.93953 -1.33777,-1.9199 -1.82795,-2.97174 0.25515,-1.19482 0.40848,-2.60412 1.62372,-3.2679 0.79656,-0.49021 1.45014,0.63317 2.10372,-0.0816 0.46976,-0.092 0.88845,0.0304 1.21523,0.30636 0.50044,0.85783 1.08249,1.71564 1.11313,2.71646 -0.29613,0.97014 -0.7557,1.86882 -1.21524,2.7777 -0.11242,0.19402 -0.38809,0.26553 -0.57188,0.40848 0.11242,0.4187 0.20416,0.86803 0.49022,1.19482 0.35741,0.0711 0.7046,0.1328 1.14376,0.0615 0.34719,-1.06207 1.49097,-1.54206 2.4407,-1.82798 l 2.09349,-1.36844 c -0.32681,-1.58289 0.68422,-2.98197 0.12257,-4.56483 -1.19482,-0.56166 -1.54206,-1.90968 -1.79734,-2.97175 0.19401,-0.65355 0.5106,-1.35821 0.99056,-1.9199 l 0.0615,0.0816 c 1.15399,1.32758 2.19563,2.69601 2.56326,4.35038 0.20416,2.11393 0.40847,4.26871 0.27575,6.47453 -1.13354,1.12333 -2.50198,1.79735 -3.7785,2.63474 l -0.95995,1.82798 c -0.11242,1.88923 -0.66377,3.58446 -0.94973,5.40222 0.80675,2.21605 1.77692,5.14694 1.06207,7.18937 -0.54128,1.22546 -1.68501,1.88926 -2.54284,2.56326 l -2.14455,1.71564 c 2.15477,2.36923 1.64416,5.05504 1.72587,8.49653 -0.0208,0.8272 1.47055,1.52161 0.674,2.47136 -0.66378,1.06207 -1.69523,1.91988 -1.52161,3.30873 -0.66377,1.11313 -2.23647,1.34803 -2.98197,1.3378 -0.15318,0.0104 -0.2859,-0.11242 -0.2859,-0.27575 0.1634,-0.56166 0.60248,-1.01101 0.83739,-1.55225 0.76591,-1.17441 0.4187,-2.79813 1.36843,-3.88062 -0.78633,-2.55306 -1.97096,-4.92228 -2.29774,-7.64893 l -0.0104,-0.17363 c -0.64339,1.24588 -0.29613,2.48156 0.0408,3.46193 -2.11391,2.66537 -4.40144,5.22863 -4.40144,8.7314 -0.90889,1.6033 -2.18541,3.06366 -2.85941,4.76908 -0.22454,0.2859 -0.64339,0.0304 -0.89866,-0.11242 m -1.56248,-7.98593 c -0.73528,0.51067 -1.41949,0.55151 -2.14454,0.55151 -0.23507,0 -0.65355,-0.0408 -0.88848,-0.11242 -0.55143,-0.1328 -1.31735,-0.42893 -1.7769,-1.16419 l -0.092,-0.17356 -0.0816,-0.22454 -0.10219,-0.23499 -0.0408,-0.36764 v -6.86259 c -0.0615,-0.85783 -0.37787,-0.87825 -1.08249,-1.39908 l 0.245,-0.092 2.78793,-0.90886 c 0.38803,0.43915 0.47999,0.99056 0.5106,1.56244 v 5.36141 c 0,0.34719 0.30636,0.54128 0.7046,0.56165 0.46977,0 0.66378,-0.17355 0.70461,-0.5515 0.0408,-2.41005 -0.0408,-3.07386 0,-5.25927 0.0615,-0.73528 0.71483,-1.47055 1.3378,-1.63394 0.77611,-0.36765 1.70542,-0.22455 2.38964,0.11242 1.23569,0.5821 1.1744,3.01261 1.16418,4.97334 -0.47999,-0.31658 -0.56165,-0.35742 -1.04162,-0.49021 -0.42893,-0.092 -0.89867,-0.0104 -1.22546,0.24499 -0.39825,0.36764 -0.43916,0.71483 -0.44931,1.35821 -0.0304,2.27731 0.21439,3.83978 -0.91909,4.74865 m -1.34802,-25.37725 c 0.53105,-0.14302 1.04164,0.18379 1.43994,0.49022 -0.0615,2.12413 -0.0615,2.10371 -0.10219,4.34018 h -1.17485 l -0.0104,-0.35741 c -0.0408,-1.69523 -0.11242,-2.80835 -0.15318,-4.47294 m -4.8814,7.36298 12.63245,-0.0104 v 3.67638 l -12.63245,0.0104 z m 7.9859,-15.65525 h -1.1029 l -0.47999,3.94189 c -0.46976,-0.42893 -1.01101,-0.73528 -1.59311,-0.91909 -0.2859,-1.67481 -0.30635,-1.78714 -0.45953,-3.0228 h -1.06207 V 113.553 c 1.82799,-0.0104 2.84919,0 4.69759,0 z m -4.74864,-8.49653 v -0.0104 c 0.2859,0.83739 0.82717,1.45014 1.67478,1.8484 -0.1022,-0.44931 -0.50037,-0.85781 -0.62294,-1.32757 -0.36765,-0.92932 -0.32681,-2.2467 0.26552,-3.05345 0.42893,-0.63316 1.04165,-0.89867 1.71565,-1.11312 -0.25515,0.76591 -0.32681,1.67478 -0.0207,2.45092 0.44938,-0.33704 0.46976,-0.35742 0.80678,-0.69446 0.13279,-0.12257 0.18378,-0.15317 0.29613,-0.24492 0.63316,1.3378 1.3378,3.176 0.92931,4.73844 l -0.25545,0.66378 c -0.10219,-1.09271 -0.28598,-1.62373 -1.02123,-2.02202 -0.10219,0.6434 0.30635,1.10293 0.40847,1.94032 0.29621,1.28674 0.0615,2.56326 -0.73528,3.30876 h -2.06286 c -1.57266,-1.67481 -1.68499,-4.20743 -1.37862,-6.48474 m 20.11797,2.42029 0.65354,1.14376 -1.62372,1.77693 c -0.43915,-0.41871 -0.47999,-0.46977 -0.91912,-0.91912 0.83742,-0.87823 0.91912,-0.97015 1.88927,-2.00157 m 4.96311,-7.13831 c 0.6434,-0.18379 1.51139,-0.1022 2.05264,0.37787 0.72506,0.53104 0.93953,1.41949 0.75572,2.24669 -0.50045,1.78711 -2.50198,2.1139 -4.11551,2.54281 l -0.88848,-1.20504 c 0.32681,-1.54203 0.5106,-3.31895 2.19563,-3.96231 m 3.33937,23.70246 c 0.1022,0 0.60256,-0.10219 0.61272,-0.4187 v -6.44388 c 0.87822,-0.20416 1.77689,-0.51066 2.61431,-0.68422 v 3.89083 c 0.51059,-0.0615 0.75569,-0.12257 1.37863,-0.22454 v 5.12652 l -1.59308,0.245 -0.50037,2.06285 h -5.67798 l -0.84759,-1.83818 c -1.37866,-0.13279 -1.47055,-0.13279 -2.85941,-0.22454 1.29693,-1.685 2.63474,-3.35981 3.5436,-5.19799 v -2.61432 l 2.56326,-0.32681 v 6.209 c 0,0.21439 0.31658,0.43916 0.63317,0.43916 z m 6.48474,-20.70008 c -1.54069,-3.51236 -4.62478,-6.096034 -8.38286,-7.16832 -3.5232,-0.959954 -7.34254,-1.490972 -11.17212,-1.490972 H 135.465 c -3.82956,0 -7.64892,0.531047 -11.1721,1.490972 -3.75808,1.072286 -6.83197,3.65596 -8.38421,7.16895 -3.37001,7.22001 -5.57584,17.61599 -5.57584,27.81794 0,10.21217 2.20583,20.59796 5.57584,27.81796 1.55224,3.513 4.62613,6.10687 8.38421,7.17915 3.52318,0.94973 7.34254,1.48078 11.1721,1.48078 h 0.11241 c 3.82958,0 7.64892,-0.53105 11.17212,-1.48078 3.75808,-1.07228 6.84217,-3.66615 8.38419,-7.17915 3.35982,-7.22 5.57584,-17.60579 5.57584,-27.81796 0,-10.20195 -2.21602,-20.59793 -5.57584,-27.81794" id="path73" style="stroke-width:2.61432"/>
    <path fill-rule="nonzero" fill="#656263" fill-opacity="1" d="m 181.75665,199.05967 c -0.0408,0.81697 -0.24492,1.50117 -1.0212,2.13433 -0.88845,0.77614 -2.10371,1.08248 -3.33937,1.07228 h -0.0304 c -1.21527,0.0104 -2.43051,-0.29613 -3.32918,-1.07228 -0.77613,-0.63317 -0.98036,-1.31736 -1.02123,-2.13433 v -7.93487 h 2.26711 v 7.93487 c 0.0104,0.65354 0.52082,1.12332 1.07228,1.33777 0.31659,0.1328 0.674,0.19401 1.03143,0.18378 0.36765,0.0104 0.72506,-0.0511 1.03143,-0.18378 0.56165,-0.21439 1.07228,-0.74547 1.08248,-1.33777 v -7.93487 h 2.25689 z m -17.9632,2.96153 -0.79655,-2.37945 h -3.94189 l -0.78634,2.37945 h -2.23647 l 3.81937,-10.91682 h 2.3488 l 3.81934,10.91682 z m -15.79822,-6.77069 0.0104,1.88926 h -5.00388 v 3.04322 h 5.72901 l 0.0104,1.81778 h -8.01657 v -10.91683 h 8.01657 l -0.0104,1.80757 -5.71881,0.0104 v 2.33859 z m -17.88151,6.77069 c -0.51059,-0.0104 0.25515,-4.32997 -1.61352,-4.44231 -1.05185,-0.0711 -1.70543,-0.0207 -2.74707,-0.0104 l 0.0104,4.45252 H 123.4862 V 191.1144 c 2.09349,0.0104 3.28831,0.0304 5.15716,0.0304 1.685,0.0816 3.37,0.75569 3.48234,2.58367 0.12265,2.12414 -1.07228,2.60412 -2.19561,2.97175 2.6041,0.56165 1.63395,3.59468 2.32837,5.32055 z m -15.96162,-2.94111 c -0.0304,0.80675 -0.23477,1.50119 -1.00079,2.13432 -0.89867,0.76592 -2.12413,1.08252 -3.33939,1.0723 h -0.0408 c -1.22546,0.0104 -2.44072,-0.30636 -3.32917,-1.0723 -0.77611,-0.63309 -0.98037,-1.32757 -1.02121,-2.13432 v -7.93486 h 2.24667 l 0.0104,7.93486 c 0.0208,0.6434 0.51059,1.12335 1.08248,1.32758 0.30635,0.14302 0.674,0.20416 1.03142,0.18378 0.35742,0.0207 0.71483,-0.0408 1.02123,-0.18378 0.57188,-0.20417 1.07227,-0.73529 1.08249,-1.32758 v -7.93486 h 2.25688 z m -20.373284,2.93088 H 88.631884 V 191.1248 c 2.18541,0 3.451707,0 5.269489,0 1.67478,0 3.002362,0.9089 3.12492,2.57346 0.122572,1.15398 -0.244997,2.15477 -1.623757,2.50201 1.215266,0.33696 2.011823,1.4501 2.011823,2.90024 0.01037,1.23568 -0.949757,2.91046 -3.635543,2.91046 m -15.72673,2.99217 H 192.30584 v -16.7786 H 78.052086 Z m 82.973884,-11.74398 v -0.0104 0.0207 l -1.35821,4.55464 h 2.71642 l -1.35821,-4.55464 z m -67.400325,2.17518 c 0.796527,0 1.276516,-0.53104 1.276516,-1.41949 0,-0.83739 -0.633167,-1.20504 -1.358219,-1.20504 h -2.644953 v 2.62453 z m 35.017525,-2.51219 c -0.64339,-0.0511 -1.80756,0.0208 -2.87982,0 v 2.80835 c 2.09348,0.0104 2.41005,0 3.06364,-0.0615 0.64339,-0.0615 1.06206,-0.65355 1.06206,-1.45013 -0.0104,-0.80676 -0.59233,-1.23567 -1.24588,-1.29694 m -34.864354,4.2789 c -1.072293,-0.0711 -2.073073,-0.0615 -2.879827,-0.0615 v 0.0104 l -0.01037,3.05344 c 2.24669,-0.0207 2.328385,0 3.094306,-0.0816 0.78633,-0.092 1.153958,-0.78636 1.153958,-1.47056 0,-0.67399 -0.510594,-1.39907 -1.358218,-1.45013" id="path74" style="stroke-width:2.61432"/>
    <path fill-rule="nonzero" fill="#656263" fill-opacity="1" d="m 124.69106,212.31504 c -0.63317,-0.0593 -1.80756,0.007 -2.86963,0 v 2.80834 c 2.07307,0.007 2.39986,0 3.05344,-0.0741 0.6434,-0.0593 1.07229,-0.64325 1.06206,-1.43997 -0.0104,-0.80672 -0.59233,-1.25603 -1.24587,-1.29686 m 53.22582,9.36455 c -3.31895,0 -4.59547,-2.07313 -4.59547,-3.6662 l 2.08329,-0.0741 c 0,0.86801 0.81698,1.99132 2.33859,1.99132 1.1744,0 2.48156,-0.24529 2.48156,-1.53178 0,-2.30798 -6.56643,-0.95998 -6.56643,-4.63633 0,-1.96072 1.3378,-3.63555 4.21762,-3.63555 4.00317,0 4.3606,2.7164 4.3606,3.41085 l -2.10371,0.0815 c 0,-0.88846 -0.54128,-1.71564 -2.0118,-1.71564 -1.6033,0 -2.22624,0.70475 -2.22624,1.46034 0,1.97094 6.59704,0.95991 6.59704,4.63634 0,2.4407 -1.89945,3.67635 -4.57505,3.67635 m -12.02993,-0.24529 -0.78634,-2.37949 h -3.94189 l -0.78633,2.37949 h -2.23647 l 3.82955,-10.91687 h 2.33859 l 3.81936,10.91687 z m -12.13205,-9.0582 h -3.24748 v 9.0582 h -2.2773 l -0.0104,-9.0582 h -3.2679 v -1.77693 h 8.8029 z m -15.14465,9.0582 h -2.27733 v -10.92709 h 2.27733 z m -12.44864,-0.0445 c -0.51059,0 0.25544,-4.31975 -1.61353,-4.43209 -1.05184,-0.0593 -1.70542,-0.007 -2.74707,0 l 0.0104,4.43209 h -2.26711 v -10.89633 c 2.07307,0.007 3.27812,0.0222 5.15716,0.0222 1.685,0.0919 3.35978,0.76589 3.47212,2.6041 0.1328,2.11397 -1.07228,2.60411 -2.19561,2.97175 2.6041,0.56173 1.63395,3.58446 2.32837,5.3001 z m -15.06296,-6.71961 v 1.88927 h -5.00395 v 3.05349 h 5.73923 v 1.81776 h -8.01656 v -10.92709 h 8.01656 v 1.80761 l -5.72904,0.007 v 2.34881 z m -17.483232,6.76052 h -2.093489 l -3.696799,-10.91687 2.389641,-0.007 c 0.745497,2.72668 1.552251,5.81078 2.348808,8.08807 0.796527,-2.27729 1.603303,-5.36139 2.348779,-8.07784 l 2.359027,-0.007 z M 78.052086,224.4378 H 192.31606 V 207.65813 H 78.052086 Z m 85.087794,-11.7951 v 0.007 l -0.0104,-0.007 v 0.0222 l -1.35821,4.56489 h 2.71645 l -1.34802,-4.56489 z m 0,0" id="path75" style="stroke-width:2.61432"/>
  </g>
</svg>