<svg height="316.227766" viewBox="0 0 252.07449 252.01073" width="316.227766" xmlns="http://www.w3.org/2000/svg" xmlns:xlink="http://www.w3.org/1999/xlink"><clipPath id="a"><path d="m0 800h800v-800h-800z"/></clipPath><g clip-path="url(#a)" transform="matrix(.35277776 0 0 -.35277778 -15.073868 267.116428)"><g fill="#fff"><path d="m0 0c-85.738-32.986-157.623-100.351-195.676-184.019-31.93-68.379-39.617-146.979-25.468-220.765 13.557-4.096 27.115-8.277 41.264-9.629-15.289 69.435-13.516 143.474 12.755 210.121 25.425 66.858 73.869 124.467 135.026 161.508 65.085 39.87 144.445 55.961 219.919 44.178 73.194-10.77 142.207-47.177 192.298-101.619 5.237-7.602 15.247-2.956 22.764-4.054-55.37 65.845-134.645 111.459-219.961 124.003-61.326 8.151-125.101 3.21-182.921-19.724" transform="translate(270.6694 733.7866)"/><path d="m0 0c34.549-105.969 10.602-228.197-61.579-313.091-56.976-68.886-143.389-112.388-232.632-117.287-105.419-7.392-212.444 40.799-277.655 123.792-4.604 8.277-15.078 3.294-22.384 4.562 55.792-79.235 144.148-134.605 240.149-148.669 65.254-7.772 132.999-1.901 193.438 25.088 88.694 37.42 160.199 112.726 193.48 202.982 25.468 66.943 29.058 141.869 12.375 211.304-14.909 4.434-29.903 8.531-45.192 11.319" transform="translate(701.8916 496.6777)"/><path d="m0 0c.169-44.601-.084-89.243.127-133.843 13.093 0 26.185 0 39.278.042.212 44.6-.168 89.2.212 133.801-13.22.127-26.439.127-39.617 0" transform="translate(481.1699 485.6118)"/><path d="m0 0c-14.994-4.899-27.369-19.513-26.651-35.773-.591-17.655 14.825-32.1 31.339-35.225 25.721-4.856 52.076-1.647 77.966-3.927 9.461-.719 19.091-9.926 15.289-19.893-5.11-10.052-17.949-9.883-27.664-10.221-33.492-.211-66.985.169-100.477-.169 1.098-8.109 2.238-16.261 3.505-24.37 36.491-.169 73.025-.042 109.516-.084 17.148.211 36.829 1.562 48.951 15.373 16.641 16.472 11.023 49.162-11.066 57.863-31.972 14.233-68.421.676-101.195 10.305-12.713 4.224-8.194 25.088 4.984 24.707 33.914 2.408 67.998.719 101.955 1.099 4.435 8.109 8.827 16.26 13.051 24.454-31.592.211-63.184.085-94.776.127-14.951-.169-30.325.296-44.727-4.266" transform="translate(138.5996 481.4307)"/><path d="m0 0c14.571-.127 29.143.211 43.714-.381 6.715 10.095 11.741 21.118 17.992 31.466 19.344-.592 38.688-.38 58.031-.169-4.139 7.603-8.025 15.331-11.699 23.145-11.53.76-23.06.845-34.591.549 7.814 15.289 15.839 30.494 23.568 45.783 15.078-30.874 31.591-60.988 46.923-91.693 2.197-3.295 4.055-9.376 9.081-8.7 13.726.507 27.453 1.056 41.179-.296-24.496 44.728-50.218 88.736-75.178 133.168-14.741-.042-29.481-.042-44.179.085-25.172-44.179-51.147-87.977-74.841-132.957" transform="translate(276.2441 352.4443)"/><path d="m0 0c-48.993-18.161-49.458-101.111-.212-119.146 35.31-12.164 73.447-5.11 110.024-6.884 1.097 8.109 2.154 16.26 3.167 24.37-23.652.676-47.43-.845-71.04.845-14.402.675-29.1 9.334-32.605 24.031-6.251 19.893-3.337 49.88 20.314 56.427 25.088 6.842 51.57 2.365 77.249 3.716-2.154 8.067-4.265 16.177-6.377 24.244-33.451-.761-68.379 4.096-100.52-7.603" transform="translate(576.918 477.8828)"/><path d="m0 0c1.098-3.168 3.379-9.545 4.519-12.713 151.583-.127 303.208-.085 454.791-.085 1.308 4.309 2.66 8.574 3.969 12.84-154.454.042-308.866.169-463.279-.042" transform="translate(168.1641 328.4121)"/></g><path d="m0 0c57.82 22.934 121.595 27.875 182.921 19.724 85.316-12.544 164.591-58.158 219.961-124.003-7.517 1.098-17.527-3.548-22.764 4.054-50.091 54.442-119.104 90.849-192.298 101.619-75.474 11.783-154.834-4.308-219.919-44.178-61.157-37.041-109.601-94.65-135.026-161.508-26.271-66.647-28.044-140.686-12.755-210.121-14.149 1.352-27.707 5.533-41.264 9.629-14.149 73.786-6.462 152.386 25.468 220.765 38.053 83.668 109.938 151.033 195.676 184.019" fill="#0166fe" transform="translate(270.6694 733.7866)"/><path d="m0 0c15.289-2.788 30.283-6.885 45.192-11.319 16.683-69.435 13.093-144.361-12.375-211.304-33.281-90.256-104.786-165.562-193.48-202.982-60.439-26.989-128.184-32.86-193.438-25.088-96.001 14.064-184.357 69.434-240.149 148.669 7.306-1.268 17.78 3.715 22.384-4.562 65.211-82.993 172.236-131.184 277.655-123.792 89.243 4.899 175.656 48.401 232.632 117.287 72.181 84.894 96.128 207.122 61.579 313.091" fill="#0166fe" transform="translate(701.8916 496.6777)"/><path d="m0 0c13.178.127 26.397.127 39.617 0-.38-44.601 0-89.201-.212-133.801-13.093-.042-26.185-.042-39.278-.042-.211 44.6.042 89.242-.127 133.843" fill="#0166fe" transform="translate(481.1699 485.6118)"/><path d="m0 0c14.402 4.562 29.776 4.097 44.727 4.266 31.592-.042 63.184.084 94.776-.127-4.224-8.194-8.616-16.345-13.051-24.454-33.957-.38-68.041 1.309-101.955-1.099-13.178.381-17.697-20.483-4.984-24.707 32.774-9.629 69.223 3.928 101.195-10.305 22.089-8.701 27.707-41.391 11.066-57.863-12.122-13.811-31.803-15.162-48.951-15.373-36.491.042-73.025-.085-109.516.084-1.267 8.109-2.407 16.261-3.505 24.37 33.492.338 66.985-.042 100.477.169 9.715.338 22.554.169 27.664 10.221 3.802 9.967-5.828 19.174-15.289 19.893-25.89 2.28-52.245-.929-77.966 3.927-16.514 3.125-31.93 17.57-31.339 35.225-.718 16.26 11.657 30.874 26.651 35.773" fill="#0166fe" transform="translate(138.5996 481.4307)"/><path d="m0 0c23.694 44.98 49.669 88.778 74.841 132.957 14.698-.127 29.438-.127 44.179-.085 24.96-44.432 50.682-88.44 75.178-133.168-13.726 1.352-27.453.803-41.179.296-5.026-.676-6.884 5.405-9.081 8.7-15.332 30.705-31.845 60.819-46.923 91.693-7.729-15.289-15.754-30.494-23.568-45.783 11.531.296 23.061.211 34.591-.549 3.674-7.814 7.56-15.542 11.699-23.145-19.343-.211-38.687-.423-58.031.169-6.251-10.348-11.277-21.371-17.992-31.466-14.571.592-29.143.254-43.714.381" fill="#0166fe" transform="translate(276.2441 352.4443)"/><path d="m0 0c32.141 11.699 67.069 6.842 100.52 7.603 2.112-8.067 4.223-16.177 6.377-24.244-25.679-1.351-52.161 3.126-77.249-3.716-23.651-6.547-26.565-36.534-20.314-56.427 3.505-14.697 18.203-23.356 32.605-24.031 23.61-1.69 47.388-.169 71.04-.845-1.013-8.11-2.07-16.261-3.167-24.37-36.577 1.774-74.714-5.28-110.024 6.884-49.246 18.035-48.781 100.985.212 119.146" fill="#0166fe" transform="translate(576.918 477.8828)"/><path d="m0 0c154.413.211 308.825.084 463.279.042-1.309-4.266-2.661-8.531-3.969-12.84-151.583 0-303.208-.042-454.791.085-1.14 3.168-3.421 9.545-4.519 12.713" fill="#0166fe" transform="translate(168.1641 328.4121)"/></g></svg>